<svg xmlns="http://www.w3.org/2000/svg" width="20" height="18" viewBox="0 0 20 18" fill="none">
<path d="M8.64064 16.4265L8.64009 16.426C6.1068 14.1288 4.03437 12.2466 2.59086 10.4806C1.15149 8.71959 0.37689 7.12024 0.37689 5.3951C0.37689 2.57263 2.58154 0.37689 5.39509 0.37689C6.98797 0.37689 8.52301 1.12036 9.52327 2.28579L9.80926 2.61901L10.0953 2.28579C11.0955 1.12036 12.6306 0.37689 14.2234 0.37689C17.037 0.37689 19.2416 2.57263 19.2416 5.3951C19.2416 7.12024 18.467 8.71959 17.0277 10.4806C15.5842 12.2466 13.5117 14.1288 10.9784 16.426L10.9779 16.4265L9.80926 17.4903L8.64064 16.4265Z" fill="black" stroke="black" stroke-width="0.75378"/>
</svg>