<svg xmlns="http://www.w3.org/2000/svg" width="21" height="22" viewBox="0 0 21 22" fill="none">
<path d="M20.0914 14.8616C19.2074 13.3411 18.7379 11.1587 18.7379 8.55462C18.7379 6.2858 17.8366 4.10989 16.2323 2.50559C14.628 0.901288 12.4521 0 10.1833 0C7.91448 0 5.73858 0.901288 4.13428 2.50559C2.52997 4.10989 1.62868 6.2858 1.62868 8.55462C1.62868 11.1597 1.16124 13.3411 0.277258 14.8616C0.096879 15.1717 0.00126375 15.5239 1.24415e-05 15.8826C-0.00123886 16.2414 0.0919178 16.5942 0.270129 16.9056C0.447213 17.2171 0.70424 17.4757 1.01467 17.6548C1.32511 17.8338 1.6777 17.9267 2.03605 17.924H5.72065C5.8217 19.0377 6.33557 20.0735 7.16131 20.8277C7.98705 21.5819 9.06497 22.0001 10.1833 22.0001C11.3016 22.0001 12.3796 21.5819 13.2053 20.8277C14.031 20.0735 14.5449 19.0377 14.646 17.924H18.3306C18.6884 17.9262 19.0404 17.833 19.3502 17.654C19.6601 17.475 19.9166 17.2167 20.0934 16.9056C20.2724 16.5946 20.3664 16.2421 20.3661 15.8833C20.3657 15.5246 20.271 15.1722 20.0914 14.8616ZM10.1833 19.5534C9.71376 19.5535 9.2586 19.3914 8.89486 19.0944C8.53112 18.7975 8.28114 18.384 8.18723 17.924H12.1794C12.0855 18.384 11.8355 18.7975 11.4718 19.0944C11.108 19.3914 10.6529 19.5535 10.1833 19.5534ZM2.71431 15.4798C3.6156 13.6467 4.07286 11.3186 4.07286 8.55462C4.07286 6.93403 4.71664 5.37982 5.86257 4.23389C7.0085 3.08796 8.56272 2.44418 10.1833 2.44418C11.8039 2.44418 13.3581 3.08796 14.504 4.23389C15.65 5.37982 16.2938 6.93403 16.2938 8.55462C16.2938 11.3176 16.75 13.6467 17.6513 15.4798H2.71431Z" fill="#595959"/>
</svg>