<svg xmlns="http://www.w3.org/2000/svg" width="22" height="21" viewBox="0 0 22 21" fill="none">
  <path d="M9.68951 18.4205L9.68891 18.4199C6.8481 15.8439 4.5241 13.7332 2.90536 11.7528C1.29127 9.77805 0.42264 7.98455 0.42264 6.05C0.42264 2.88492 2.89491 0.42264 6.05 0.42264C7.83623 0.42264 9.55761 1.25635 10.6793 2.56326L11 2.93693L11.3207 2.56326C12.4424 1.25635 14.1638 0.42264 15.95 0.42264C19.1051 0.42264 21.5774 2.88492 21.5774 6.05C21.5774 7.98455 20.7087 9.77805 19.0946 11.7528C17.4759 13.7332 15.1519 15.8439 12.3111 18.4199L12.3105 18.4205L11 19.6135L9.68951 18.4205Z" fill="white" stroke="black" stroke-width="0.84528"/>
</svg>