<svg xmlns="http://www.w3.org/2000/svg" width="18" height="18" viewBox="0 0 18 18" fill="none">
<path d="M9.67393 8.99711L14.7391 3.92696C14.8285 3.83716 14.8786 3.71561 14.8785 3.58892C14.8784 3.46223 14.8282 3.34075 14.7387 3.25106C14.5596 3.07286 14.2441 3.07196 14.0632 3.25196L8.99938 8.32211L3.93373 3.25061C3.75373 3.07286 3.43828 3.07376 3.25918 3.25151C3.21472 3.29579 3.17953 3.34848 3.15566 3.4065C3.13178 3.46452 3.11971 3.52672 3.12013 3.58946C3.12013 3.71726 3.16963 3.83696 3.25918 3.92561L8.32438 8.99666L3.25963 14.0682C3.17025 14.1581 3.1202 14.2798 3.12045 14.4066C3.12071 14.5334 3.17124 14.6549 3.26098 14.7445C3.34783 14.8305 3.47068 14.88 3.59758 14.88H3.60028C3.72763 14.8795 3.85048 14.8296 3.93553 14.7427L8.99938 9.67256L14.065 14.7441C14.1546 14.8332 14.2743 14.8827 14.4012 14.8827C14.4639 14.8828 14.5261 14.8706 14.5841 14.8467C14.6421 14.8228 14.6948 14.7876 14.7392 14.7432C14.7836 14.6988 14.8187 14.6461 14.8426 14.5881C14.8666 14.5301 14.8788 14.468 14.8786 14.4052C14.8786 14.2779 14.8291 14.1577 14.7391 14.0691L9.67393 8.99711Z" fill="#F8F8F8"/>
</svg>