<svg xmlns="http://www.w3.org/2000/svg" width="53" height="53" viewBox="0 0 53 53" fill="none">
<path d="M34.2102 34.2107C34.8197 33.6012 34.8197 32.6131 34.2102 32.0036L30.1067 27.9001C29.3256 27.119 29.3256 25.8527 30.1067 25.0716L34.2102 20.9681C34.8197 20.3586 34.8197 19.3705 34.2102 18.761C33.6007 18.1515 32.6126 18.1515 32.0031 18.761L27.8996 22.8645C27.1185 23.6456 25.8522 23.6456 25.0711 22.8645L20.9676 18.761C20.3581 18.1515 19.37 18.1515 18.7605 18.761C18.151 19.3705 18.151 20.3586 18.7605 20.9681L22.864 25.0716C23.6451 25.8527 23.6451 27.119 22.864 27.9001L18.7605 32.0036C18.151 32.6131 18.151 33.6012 18.7605 34.2107C19.37 34.8202 20.3581 34.8202 20.9676 34.2107L25.0711 30.1072C25.8522 29.3261 27.1185 29.3261 27.8996 30.1072L32.0031 34.2107C32.6126 34.8202 33.6007 34.8202 34.2102 34.2107Z" fill="black"/>
</svg>