<svg width="24" height="22" viewBox="0 0 24 22" fill="none" xmlns="http://www.w3.org/2000/svg">
<path d="M20 16C20.3852 16.0002 20.7556 16.1486 21.0344 16.4144C21.3132 16.6802 21.479 17.0431 21.4975 17.4279C21.516 17.8127 21.3858 18.1898 21.1338 18.4812C20.8818 18.7726 20.5274 18.9558 20.144 18.993L20 19H4C3.61478 18.9998 3.24441 18.8514 2.96561 18.5856C2.68682 18.3198 2.52099 17.9569 2.50248 17.5721C2.48396 17.1873 2.61419 16.8102 2.86618 16.5188C3.11816 16.2274 3.47258 16.0442 3.856 16.007L4 16H20ZM20 9C20.3978 9 20.7794 9.15804 21.0607 9.43934C21.342 9.72064 21.5 10.1022 21.5 10.5C21.5 10.8978 21.342 11.2794 21.0607 11.5607C20.7794 11.842 20.3978 12 20 12H4C3.60218 12 3.22064 11.842 2.93934 11.5607C2.65804 11.2794 2.5 10.8978 2.5 10.5C2.5 10.1022 2.65804 9.72064 2.93934 9.43934C3.22064 9.15804 3.60218 9 4 9H20ZM20 2C20.3978 2 20.7794 2.15804 21.0607 2.43934C21.342 2.72064 21.5 3.10218 21.5 3.5C21.5 3.89782 21.342 4.27936 21.0607 4.56066C20.7794 4.84196 20.3978 5 20 5H4C3.60218 5 3.22064 4.84196 2.93934 4.56066C2.65804 4.27936 2.5 3.89782 2.5 3.5C2.5 3.10218 2.65804 2.72064 2.93934 2.43934C3.22064 2.15804 3.60218 2 4 2H20Z" fill="#595959"/>
</svg>
