<svg width="39" height="38" viewBox="0 0 39 38" fill="none" xmlns="http://www.w3.org/2000/svg">
<path fill-rule="evenodd" clip-rule="evenodd" d="M22.4844 1.75376C23.3488 0.81729 24.5867 0.230774 25.9616 0.230774C28.5362 0.230774 30.6304 2.28745 30.691 4.84749C33.251 4.90809 35.3077 7.00232 35.3077 9.57691C35.3077 9.75737 35.2976 9.93546 35.2779 10.1107C36.6766 10.9325 37.6154 12.4528 37.6154 14.1923C37.6154 14.3776 37.6048 14.5604 37.584 14.7401C38.458 15.5985 39 16.7936 39 18.1154C39 19.8535 38.0627 21.3727 36.6659 22.195C37.262 22.9865 37.6154 23.9712 37.6154 25.0384C37.6154 26.4642 36.9847 27.7426 35.9871 28.61C35.9956 28.726 36 28.8433 36 28.9615C36 31.5743 33.8819 33.6923 31.2692 33.6923C31.0196 33.6923 30.7746 33.673 30.5355 33.6357C30 35.6609 28.1551 37.1538 25.9616 37.1538C24.5328 37.1538 23.252 36.5205 22.3846 35.5192C21.5172 36.5205 20.2364 37.1538 18.8076 37.1538C16.9526 37.1538 15.3469 36.0861 14.5716 34.5317C13.7678 35.1624 12.7548 35.5385 11.6538 35.5385C9.30156 35.5385 7.35026 33.8216 6.98461 31.5727C6.77583 31.6008 6.56273 31.6154 6.34624 31.6154C3.73351 31.6154 1.61547 29.4973 1.61547 26.8846C1.61547 26.293 1.72407 25.7267 1.92243 25.2047C0.994156 24.3409 0.413518 23.1086 0.413518 21.7406C0.413518 20.9011 0.632186 20.1127 1.01567 19.4292C0.379615 18.6236 0 17.6061 0 16.5C0 14.3363 1.45261 12.5118 3.43583 11.9486C3.53053 10.1029 4.68316 8.53661 6.29917 7.84441C6.25421 7.58249 6.23079 7.31321 6.23079 7.03845C6.23079 4.42572 8.34882 2.30768 10.9616 2.30768C12.2206 2.30768 13.3648 2.79954 14.2124 3.6016C14.7188 1.53408 16.584 0 18.8076 0C20.2922 0 21.6171 0.683863 22.4844 1.75376Z" fill="#7FB3FF"/>
<circle cx="16.9873" cy="7.43747" r="2.66409" transform="rotate(-90 16.9873 7.43747)" fill="white"/>
<ellipse cx="17.0623" cy="7.37088" rx="2.06467" ry="1.93146" transform="rotate(-90 17.0623 7.37088)" fill="black"/>
<circle cx="22.0489" cy="7.30368" r="2.66409" transform="rotate(-90 22.0489 7.30368)" fill="white"/>
<ellipse cx="22.1229" cy="7.37088" rx="2.06467" ry="1.93146" transform="rotate(-90 22.1229 7.37088)" fill="black"/>
<path d="M21.335 16.5C21.335 17.6719 21.1226 18.7008 20.8065 19.4119C20.6481 19.7683 20.4768 20.0155 20.32 20.1646C20.1668 20.3105 20.0598 20.335 20 20.335C19.9402 20.335 19.8332 20.3105 19.68 20.1646C19.5232 20.0155 19.3519 19.7683 19.1935 19.4119C18.8774 18.7008 18.665 17.6719 18.665 16.5C18.665 15.3281 18.8774 14.2992 19.1935 13.5881C19.3519 13.2317 19.5232 12.9845 19.68 12.8354C19.8332 12.6895 19.9402 12.665 20 12.665C20.0598 12.665 20.1668 12.6895 20.32 12.8354C20.4768 12.9845 20.6481 13.2317 20.8065 13.5881C21.1226 14.2992 21.335 15.3281 21.335 16.5Z" stroke="#282828" stroke-width="1.33"/>
</svg>
