<svg width="39" height="38" viewBox="0 0 39 38" fill="none" xmlns="http://www.w3.org/2000/svg">
<path fill-rule="evenodd" clip-rule="evenodd" d="M22.4844 1.75376C23.3488 0.81729 24.5867 0.230774 25.9616 0.230774C28.5362 0.230774 30.6304 2.28745 30.691 4.84749C33.251 4.90809 35.3077 7.00232 35.3077 9.57691C35.3077 9.75737 35.2976 9.93546 35.2779 10.1107C36.6766 10.9325 37.6154 12.4528 37.6154 14.1923C37.6154 14.3776 37.6048 14.5604 37.584 14.7401C38.458 15.5985 39 16.7936 39 18.1154C39 19.8535 38.0627 21.3727 36.6659 22.195C37.262 22.9865 37.6154 23.9712 37.6154 25.0384C37.6154 26.4642 36.9847 27.7426 35.9871 28.61C35.9956 28.726 36 28.8433 36 28.9615C36 31.5743 33.8819 33.6923 31.2692 33.6923C31.0196 33.6923 30.7746 33.673 30.5355 33.6357C30 35.6609 28.1551 37.1538 25.9616 37.1538C24.5328 37.1538 23.252 36.5205 22.3846 35.5192C21.5172 36.5205 20.2364 37.1538 18.8076 37.1538C16.9526 37.1538 15.3469 36.0861 14.5716 34.5317C13.7678 35.1624 12.7548 35.5385 11.6538 35.5385C9.30156 35.5385 7.35026 33.8216 6.98461 31.5727C6.77583 31.6008 6.56273 31.6154 6.34624 31.6154C3.73351 31.6154 1.61547 29.4973 1.61547 26.8846C1.61547 26.293 1.72407 25.7267 1.92243 25.2047C0.994156 24.3409 0.413518 23.1086 0.413518 21.7406C0.413518 20.9011 0.632186 20.1127 1.01567 19.4292C0.379615 18.6236 0 17.6061 0 16.5C0 14.3363 1.45261 12.5118 3.43583 11.9486C3.53053 10.1029 4.68316 8.53661 6.29917 7.84441C6.25421 7.58249 6.23079 7.31321 6.23079 7.03845C6.23079 4.42572 8.34882 2.30768 10.9616 2.30768C12.2206 2.30768 13.3648 2.79954 14.2124 3.6016C14.7188 1.53408 16.584 0 18.8076 0C20.2922 0 21.6171 0.683863 22.4844 1.75376Z" fill="#7FB3FF"/>
<circle cx="16.9873" cy="7.43747" r="2.66409" transform="rotate(-90 16.9873 7.43747)" fill="white"/>
<ellipse cx="17.0623" cy="7.37088" rx="2.06467" ry="1.93146" transform="rotate(-90 17.0623 7.37088)" fill="black"/>
<circle cx="22.0489" cy="7.30368" r="2.66409" transform="rotate(-90 22.0489 7.30368)" fill="white"/>
<ellipse cx="22.1229" cy="7.37088" rx="2.06467" ry="1.93146" transform="rotate(-90 22.1229 7.37088)" fill="black"/>
<path d="M23 13.9998C24.5097 15.6205 28.2749 17.8894 31.2587 13.9998" stroke="#282828" stroke-width="1.33204" stroke-linecap="round"/>
</svg>
