<svg width="66" height="30" viewBox="0 0 66 30" fill="none" xmlns="http://www.w3.org/2000/svg">
<path d="M1.87658 24V5.92369H14.2158V9.47187H6.24561V13.1789H13.4302V16.7359H6.24561V24H1.87658ZM19.2405 5.92369V24H14.9244V5.92369H19.2405ZM26.8249 24.256C25.4009 24.256 24.177 23.9647 23.1531 23.3822C22.1352 22.7937 21.3496 21.9758 20.7965 20.9284C20.2493 19.8752 19.9757 18.6542 19.9757 17.2655C19.9757 15.871 20.2493 14.65 20.7965 13.6026C21.3496 12.5493 22.1352 11.7314 23.1531 11.1489C24.177 10.5605 25.4009 10.2662 26.8249 10.2662C28.2489 10.2662 29.4698 10.5605 30.4878 11.1489C31.5117 11.7314 32.2972 12.5493 32.8444 13.6026C33.3976 14.65 33.6741 15.871 33.6741 17.2655C33.6741 18.6542 33.3976 19.8752 32.8444 20.9284C32.2972 21.9758 31.5117 22.7937 30.4878 23.3822C29.4698 23.9647 28.2489 24.256 26.8249 24.256ZM26.8514 20.9991C27.3692 20.9991 27.8075 20.8402 28.1665 20.5224C28.5254 20.2047 28.799 19.7634 28.9873 19.1985C29.1815 18.6336 29.2786 17.9804 29.2786 17.239C29.2786 16.4859 29.1815 15.8268 28.9873 15.2619C28.799 14.6971 28.5254 14.2557 28.1665 13.938C27.8075 13.6202 27.3692 13.4614 26.8514 13.4614C26.3159 13.4614 25.8628 13.6202 25.4921 13.938C25.1273 14.2557 24.8478 14.6971 24.6536 15.2619C24.4653 15.8268 24.3712 16.4859 24.3712 17.239C24.3712 17.9804 24.4653 18.6336 24.6536 19.1985C24.8478 19.7634 25.1273 20.2047 25.4921 20.5224C25.8628 20.8402 26.3159 20.9991 26.8514 20.9991ZM43.1407 18.1481V10.4428H47.4479V24H43.3349V21.4757H43.1937C42.8936 22.3053 42.3816 22.9644 41.6579 23.4528C40.94 23.9353 40.0721 24.1765 39.0541 24.1765C38.1303 24.1765 37.3183 23.9647 36.618 23.541C35.9178 23.1174 35.3735 22.526 34.9852 21.7669C34.5968 21.002 34.3997 20.1076 34.3938 19.0837V10.4428H38.7099V18.2364C38.7158 18.9719 38.9099 19.5515 39.2924 19.9752C39.6749 20.3989 40.1956 20.6107 40.8547 20.6107C41.2842 20.6107 41.6696 20.5165 42.0109 20.3282C42.3581 20.1341 42.6317 19.8546 42.8318 19.4897C43.0377 19.119 43.1407 18.6718 43.1407 18.1481ZM55.3854 24H48.7038V5.92369H55.3765C57.2183 5.92369 58.8041 6.28557 60.1339 7.00933C61.4696 7.7272 62.4994 8.76283 63.2231 10.1162C63.9469 11.4637 64.3088 13.076 64.3088 14.953C64.3088 16.836 63.9469 18.4541 63.2231 19.8075C62.5053 21.1609 61.4785 22.1994 60.1428 22.9232C58.807 23.6411 57.2212 24 55.3854 24ZM53.0729 20.2753H55.2177C56.2297 20.2753 57.0859 20.1046 57.7861 19.7634C58.4922 19.4162 59.0248 18.8543 59.3837 18.0775C59.7485 17.2949 59.9309 16.2534 59.9309 14.953C59.9309 13.6526 59.7485 12.617 59.3837 11.8462C59.0189 11.0694 58.4805 10.5104 57.7685 10.1692C57.0624 9.82198 56.1915 9.6484 55.1559 9.6484H53.0729V20.2753Z" fill="black"/>
<circle cx="46.4232" cy="1.6" r="1.6" fill="#3145FF"/>
</svg>
