<svg width="21" height="22" viewBox="0 0 21 22" fill="none" xmlns="http://www.w3.org/2000/svg">
<path d="M20.5914 14.8616C19.7074 13.3411 19.2379 11.1587 19.2379 8.55462C19.2379 6.2858 18.3366 4.10989 16.7323 2.50559C15.128 0.901288 12.9521 0 10.6833 0C8.41448 0 6.23858 0.901288 4.63428 2.50559C3.02997 4.10989 2.12868 6.2858 2.12868 8.55462C2.12868 11.1597 1.66124 13.3411 0.777258 14.8616C0.596879 15.1717 0.501264 15.5239 0.500012 15.8826C0.498761 16.2414 0.591918 16.5942 0.770129 16.9056C0.947213 17.2171 1.20424 17.4757 1.51467 17.6548C1.82511 17.8338 2.1777 17.9267 2.53605 17.924H6.22065C6.3217 19.0377 6.83557 20.0735 7.66131 20.8277C8.48705 21.5819 9.56497 22.0001 10.6833 22.0001C11.8016 22.0001 12.8796 21.5819 13.7053 20.8277C14.531 20.0735 15.0449 19.0377 15.146 17.924H18.8306C19.1884 17.9262 19.5404 17.833 19.8502 17.654C20.1601 17.475 20.4166 17.2167 20.5934 16.9056C20.7724 16.5946 20.8664 16.2421 20.8661 15.8833C20.8657 15.5246 20.771 15.1722 20.5914 14.8616ZM10.6833 19.5534C10.2138 19.5535 9.7586 19.3914 9.39486 19.0944C9.03112 18.7975 8.78114 18.384 8.68723 17.924H12.6794C12.5855 18.384 12.3355 18.7975 11.9718 19.0944C11.608 19.3914 11.1529 19.5535 10.6833 19.5534ZM3.21431 15.4798C4.1156 13.6467 4.57286 11.3186 4.57286 8.55462C4.57286 6.93403 5.21664 5.37982 6.36257 4.23389C7.5085 3.08795 9.06272 2.44418 10.6833 2.44418C12.3039 2.44418 13.8581 3.08795 15.004 4.23389C16.15 5.37982 16.7938 6.93403 16.7938 8.55462C16.7938 11.3176 17.25 13.6467 18.1513 15.4798H3.21431Z" fill="#595959"/>
</svg>
